<svg xmlns="http://www.w3.org/2000/svg" xmlns:xlink="http://www.w3.org/1999/xlink" width="500" zoomAndPan="magnify" viewBox="0 0 375 374.999991" height="500" preserveAspectRatio="xMidYMid meet" version="1.0"><defs><g/><clipPath id="2b68fec8dd"><path d="M 1.398438 1.398438 L 374.898438 1.398438 L 374.898438 374.898438 L 1.398438 374.898438 Z M 1.398438 1.398438 " clip-rule="nonzero"/></clipPath><clipPath id="9b25709069"><path d="M 1.398438 1.398438 L 374.898438 1.398438 L 374.898438 374.898438 L 1.398438 374.898438 Z M 1.398438 1.398438 " clip-rule="nonzero"/></clipPath><clipPath id="0752195c61"><path d="M 188.148438 1.398438 C 85.007812 1.398438 1.398438 85.007812 1.398438 188.148438 C 1.398438 291.285156 85.007812 374.898438 188.148438 374.898438 C 291.285156 374.898438 374.898438 291.285156 374.898438 188.148438 C 374.898438 85.007812 291.285156 1.398438 188.148438 1.398438 " clip-rule="nonzero"/></clipPath><clipPath id="14c849e393"><path d="M 55 55 L 320 55 L 320 320 L 55 320 Z M 55 55 " clip-rule="nonzero"/></clipPath><clipPath id="65e66c9d01"><path d="M 187.496094 1.398438 L 373.640625 187.542969 L 187.496094 373.691406 L 1.347656 187.542969 Z M 187.496094 1.398438 " clip-rule="nonzero"/></clipPath><clipPath id="50944e5186"><path d="M 187.496094 1.398438 L 373.640625 187.542969 L 187.496094 373.691406 L 1.347656 187.542969 Z M 187.496094 1.398438 " clip-rule="nonzero"/></clipPath><clipPath id="37551db96c"><path d="M 124 125 L 251 125 L 251 251 L 124 251 Z M 124 125 " clip-rule="nonzero"/></clipPath><clipPath id="74eefc272b"><path d="M 187.496094 1.398438 L 373.640625 187.542969 L 187.496094 373.691406 L 1.347656 187.542969 Z M 187.496094 1.398438 " clip-rule="nonzero"/></clipPath><clipPath id="be45ca60d4"><path d="M 187.496094 1.398438 L 373.640625 187.542969 L 187.496094 373.691406 L 1.347656 187.542969 Z M 187.496094 1.398438 " clip-rule="nonzero"/></clipPath><clipPath id="752b794e7c"><path d="M 73 136 L 88 136 L 88 220 L 73 220 Z M 73 136 " clip-rule="nonzero"/></clipPath><clipPath id="adae856ef9"><path d="M 187.496094 1.398438 L 373.640625 187.542969 L 187.496094 373.691406 L 1.347656 187.542969 Z M 187.496094 1.398438 " clip-rule="nonzero"/></clipPath><clipPath id="23c1291fcd"><path d="M 187.496094 1.398438 L 373.640625 187.542969 L 187.496094 373.691406 L 1.347656 187.542969 Z M 187.496094 1.398438 " clip-rule="nonzero"/></clipPath><clipPath id="24040c80ed"><path d="M 65 133 L 81 133 L 81 222 L 65 222 Z M 65 133 " clip-rule="nonzero"/></clipPath><clipPath id="1cff2143cf"><path d="M 187.496094 1.398438 L 373.640625 187.542969 L 187.496094 373.691406 L 1.347656 187.542969 Z M 187.496094 1.398438 " clip-rule="nonzero"/></clipPath><clipPath id="ff5b762fda"><path d="M 187.496094 1.398438 L 373.640625 187.542969 L 187.496094 373.691406 L 1.347656 187.542969 Z M 187.496094 1.398438 " clip-rule="nonzero"/></clipPath><clipPath id="615e99f776"><path d="M 115 155 L 126 155 L 126 209 L 115 209 Z M 115 155 " clip-rule="nonzero"/></clipPath><clipPath id="a1e2de5b20"><path d="M 187.496094 1.398438 L 373.640625 187.542969 L 187.496094 373.691406 L 1.347656 187.542969 Z M 187.496094 1.398438 " clip-rule="nonzero"/></clipPath><clipPath id="f41fff7fe7"><path d="M 187.496094 1.398438 L 373.640625 187.542969 L 187.496094 373.691406 L 1.347656 187.542969 Z M 187.496094 1.398438 " clip-rule="nonzero"/></clipPath><clipPath id="b9887906aa"><path d="M 90 143 L 103 143 L 103 216 L 90 216 Z M 90 143 " clip-rule="nonzero"/></clipPath><clipPath id="769adb644a"><path d="M 187.496094 1.398438 L 373.640625 187.542969 L 187.496094 373.691406 L 1.347656 187.542969 Z M 187.496094 1.398438 " clip-rule="nonzero"/></clipPath><clipPath id="1f56dcd429"><path d="M 187.496094 1.398438 L 373.640625 187.542969 L 187.496094 373.691406 L 1.347656 187.542969 Z M 187.496094 1.398438 " clip-rule="nonzero"/></clipPath><clipPath id="b781815a02"><path d="M 98 147 L 111 147 L 111 213 L 98 213 Z M 98 147 " clip-rule="nonzero"/></clipPath><clipPath id="4f323a89bb"><path d="M 187.496094 1.398438 L 373.640625 187.542969 L 187.496094 373.691406 L 1.347656 187.542969 Z M 187.496094 1.398438 " clip-rule="nonzero"/></clipPath><clipPath id="9b5002eab6"><path d="M 187.496094 1.398438 L 373.640625 187.542969 L 187.496094 373.691406 L 1.347656 187.542969 Z M 187.496094 1.398438 " clip-rule="nonzero"/></clipPath><clipPath id="485c035b46"><path d="M 107 151 L 119 151 L 119 211 L 107 211 Z M 107 151 " clip-rule="nonzero"/></clipPath><clipPath id="b03759833c"><path d="M 187.496094 1.398438 L 373.640625 187.542969 L 187.496094 373.691406 L 1.347656 187.542969 Z M 187.496094 1.398438 " clip-rule="nonzero"/></clipPath><clipPath id="b9cb66e146"><path d="M 187.496094 1.398438 L 373.640625 187.542969 L 187.496094 373.691406 L 1.347656 187.542969 Z M 187.496094 1.398438 " clip-rule="nonzero"/></clipPath><clipPath id="fc1b00ef28"><path d="M 81 140 L 95 140 L 95 218 L 81 218 Z M 81 140 " clip-rule="nonzero"/></clipPath><clipPath id="d232e9593d"><path d="M 187.496094 1.398438 L 373.640625 187.542969 L 187.496094 373.691406 L 1.347656 187.542969 Z M 187.496094 1.398438 " clip-rule="nonzero"/></clipPath><clipPath id="2d929df153"><path d="M 187.496094 1.398438 L 373.640625 187.542969 L 187.496094 373.691406 L 1.347656 187.542969 Z M 187.496094 1.398438 " clip-rule="nonzero"/></clipPath><clipPath id="644455bdd6"><path d="M 256 151 L 268 151 L 268 211 L 256 211 Z M 256 151 " clip-rule="nonzero"/></clipPath><clipPath id="a9ac57cb13"><path d="M 187.496094 1.398438 L 373.640625 187.542969 L 187.496094 373.691406 L 1.347656 187.542969 Z M 187.496094 1.398438 " clip-rule="nonzero"/></clipPath><clipPath id="97c50dbfc7"><path d="M 187.496094 1.398438 L 373.640625 187.542969 L 187.496094 373.691406 L 1.347656 187.542969 Z M 187.496094 1.398438 " clip-rule="nonzero"/></clipPath><clipPath id="445e8cc27b"><path d="M 294 133 L 310 133 L 310 222 L 294 222 Z M 294 133 " clip-rule="nonzero"/></clipPath><clipPath id="db95f969c3"><path d="M 187.496094 1.398438 L 373.640625 187.542969 L 187.496094 373.691406 L 1.347656 187.542969 Z M 187.496094 1.398438 " clip-rule="nonzero"/></clipPath><clipPath id="c5a7aa842c"><path d="M 187.496094 1.398438 L 373.640625 187.542969 L 187.496094 373.691406 L 1.347656 187.542969 Z M 187.496094 1.398438 " clip-rule="nonzero"/></clipPath><clipPath id="9d5ccbc8e5"><path d="M 280 140 L 295 140 L 295 218 L 280 218 Z M 280 140 " clip-rule="nonzero"/></clipPath><clipPath id="d76ba84301"><path d="M 187.496094 1.398438 L 373.640625 187.542969 L 187.496094 373.691406 L 1.347656 187.542969 Z M 187.496094 1.398438 " clip-rule="nonzero"/></clipPath><clipPath id="5aeb83622a"><path d="M 187.496094 1.398438 L 373.640625 187.542969 L 187.496094 373.691406 L 1.347656 187.542969 Z M 187.496094 1.398438 " clip-rule="nonzero"/></clipPath><clipPath id="22f78d2d16"><path d="M 288 136 L 303 136 L 303 220 L 288 220 Z M 288 136 " clip-rule="nonzero"/></clipPath><clipPath id="95b9216751"><path d="M 187.496094 1.398438 L 373.640625 187.542969 L 187.496094 373.691406 L 1.347656 187.542969 Z M 187.496094 1.398438 " clip-rule="nonzero"/></clipPath><clipPath id="c5df5cf7b9"><path d="M 187.496094 1.398438 L 373.640625 187.542969 L 187.496094 373.691406 L 1.347656 187.542969 Z M 187.496094 1.398438 " clip-rule="nonzero"/></clipPath><clipPath id="93aad17ac3"><path d="M 249 155 L 260 155 L 260 209 L 249 209 Z M 249 155 " clip-rule="nonzero"/></clipPath><clipPath id="dc513f34f2"><path d="M 187.496094 1.398438 L 373.640625 187.542969 L 187.496094 373.691406 L 1.347656 187.542969 Z M 187.496094 1.398438 " clip-rule="nonzero"/></clipPath><clipPath id="f8a65da22f"><path d="M 187.496094 1.398438 L 373.640625 187.542969 L 187.496094 373.691406 L 1.347656 187.542969 Z M 187.496094 1.398438 " clip-rule="nonzero"/></clipPath><clipPath id="b7f988cf8d"><path d="M 264 147 L 277 147 L 277 213 L 264 213 Z M 264 147 " clip-rule="nonzero"/></clipPath><clipPath id="5837edd70c"><path d="M 187.496094 1.398438 L 373.640625 187.542969 L 187.496094 373.691406 L 1.347656 187.542969 Z M 187.496094 1.398438 " clip-rule="nonzero"/></clipPath><clipPath id="514f4598be"><path d="M 187.496094 1.398438 L 373.640625 187.542969 L 187.496094 373.691406 L 1.347656 187.542969 Z M 187.496094 1.398438 " clip-rule="nonzero"/></clipPath><clipPath id="fc436423aa"><path d="M 272 144 L 286 144 L 286 215 L 272 215 Z M 272 144 " clip-rule="nonzero"/></clipPath><clipPath id="ccd40c133c"><path d="M 187.496094 1.398438 L 373.640625 187.542969 L 187.496094 373.691406 L 1.347656 187.542969 Z M 187.496094 1.398438 " clip-rule="nonzero"/></clipPath><clipPath id="ba3ef290c9"><path d="M 187.496094 1.398438 L 373.640625 187.542969 L 187.496094 373.691406 L 1.347656 187.542969 Z M 187.496094 1.398438 " clip-rule="nonzero"/></clipPath><clipPath id="44d2affa9d"><path d="M 138.265625 138.265625 L 236.515625 138.265625 L 236.515625 236.515625 L 138.265625 236.515625 Z M 138.265625 138.265625 " clip-rule="nonzero"/></clipPath><clipPath id="6c151e67f7"><path d="M 165.839844 180 L 209.339844 180 L 209.339844 219.308594 L 165.839844 219.308594 Z M 165.839844 180 " clip-rule="nonzero"/></clipPath><clipPath id="28ae0b142c"><path d="M 173 155.558594 L 202 155.558594 L 202 203 L 173 203 Z M 173 155.558594 " clip-rule="nonzero"/></clipPath><clipPath id="7ae3134023"><path d="M 24.832031 182.253906 L 35.332031 182.253906 L 35.332031 192.753906 L 24.832031 192.753906 Z M 24.832031 182.253906 " clip-rule="nonzero"/></clipPath><clipPath id="4083fe7793"><path d="M 340.992188 182.253906 L 351.492188 182.253906 L 351.492188 192.753906 L 340.992188 192.753906 Z M 340.992188 182.253906 " clip-rule="nonzero"/></clipPath></defs><g clip-path="url(#2b68fec8dd)"><path fill="#000000" d="M 188.148438 1.398438 C 85.007812 1.398438 1.398438 85.007812 1.398438 188.148438 C 1.398438 291.285156 85.007812 374.898438 188.148438 374.898438 C 291.285156 374.898438 374.898438 291.285156 374.898438 188.148438 C 374.898438 85.007812 291.285156 1.398438 188.148438 1.398438 " fill-opacity="1" fill-rule="nonzero"/></g><g clip-path="url(#9b25709069)"><g clip-path="url(#0752195c61)"><path stroke-linecap="butt" transform="matrix(0.749812, 0, 0, 0.749812, 1.396961, 1.396956)" fill="none" stroke-linejoin="miter" d="M 249.064487 0.0019756 C 111.509126 0.0019756 0.0019696 111.509132 0.0019696 249.064493 C 0.0019696 386.614644 111.509126 498.12701 249.064487 498.12701 C 386.614638 498.12701 498.127004 386.614644 498.127004 249.064493 C 498.127004 111.509132 386.614638 0.0019756 249.064487 0.0019756 " stroke="#dfcc89" stroke-width="4" stroke-opacity="1" stroke-miterlimit="4"/></g></g><g clip-path="url(#14c849e393)"><g clip-path="url(#65e66c9d01)"><g clip-path="url(#50944e5186)"><path fill="#dfcc89" d="M 279.550781 95.488281 L 280.574219 94.464844 C 229.167969 43.058594 145.820312 43.0625 94.414062 94.46875 C 43.007812 145.878906 43.011719 229.21875 94.417969 280.625 C 145.820312 332.027344 229.164062 332.03125 280.570312 280.625 C 331.976562 229.21875 331.980469 145.871094 280.574219 94.464844 L 278.53125 96.511719 C 303.671875 121.652344 316.234375 154.59375 316.234375 187.546875 C 316.234375 220.5 303.667969 253.441406 278.527344 278.582031 C 253.386719 303.722656 220.445312 316.285156 187.492188 316.289062 C 154.539062 316.285156 121.601562 303.71875 96.460938 278.578125 C 71.320312 253.4375 58.753906 220.5 58.75 187.546875 C 58.753906 154.59375 71.316406 121.65625 96.457031 96.511719 C 121.601562 71.371094 154.539062 58.808594 187.492188 58.804688 C 220.449219 58.804688 253.386719 71.367188 278.53125 96.511719 L 279.550781 95.488281 " fill-opacity="1" fill-rule="nonzero"/></g></g></g><g clip-path="url(#37551db96c)"><g clip-path="url(#74eefc272b)"><g clip-path="url(#be45ca60d4)"><path fill="#dfcc89" d="M 176.042969 199 L 177.066406 197.972656 C 174.183594 195.089844 172.75 191.328125 172.746094 187.546875 C 172.75 183.769531 174.183594 180.003906 177.066406 177.121094 C 179.949219 174.242188 183.714844 172.804688 187.492188 172.800781 C 191.273438 172.804688 195.039062 174.238281 197.921875 177.121094 C 200.800781 180 202.234375 183.765625 202.238281 187.546875 C 202.234375 191.324219 200.796875 195.089844 197.917969 197.972656 C 195.035156 200.855469 191.269531 202.289062 187.492188 202.292969 C 183.710938 202.289062 179.949219 200.855469 177.066406 197.972656 L 175.019531 200.019531 C 181.910156 206.90625 193.070312 206.90625 199.960938 200.015625 C 206.847656 193.128906 206.851562 181.964844 199.964844 175.074219 C 193.074219 168.191406 181.910156 168.191406 175.023438 175.078125 C 168.132812 181.96875 168.136719 193.128906 175.019531 200.019531 Z M 230.679688 144.363281 L 231.699219 143.339844 C 207.285156 118.925781 167.699219 118.925781 143.28125 143.335938 C 118.867188 167.757812 118.871094 207.339844 143.285156 231.753906 C 167.703125 256.167969 207.28125 256.171875 231.699219 231.753906 C 256.113281 207.34375 256.117188 167.757812 231.699219 143.339844 L 229.65625 145.386719 C 241.300781 157.03125 247.121094 172.285156 247.121094 187.550781 C 247.117188 202.8125 241.300781 218.066406 229.65625 229.710938 C 218.007812 241.359375 202.757812 247.175781 187.492188 247.175781 C 172.230469 247.175781 156.976562 241.355469 145.332031 229.707031 C 133.683594 218.0625 127.867188 202.8125 127.863281 187.546875 C 127.863281 172.28125 133.679688 157.03125 145.328125 145.382812 C 156.972656 133.738281 172.226562 127.921875 187.488281 127.921875 C 202.757812 127.921875 218.007812 133.738281 229.65625 145.386719 L 230.679688 144.363281 " fill-opacity="1" fill-rule="nonzero"/></g></g></g><g clip-path="url(#752b794e7c)"><g clip-path="url(#adae856ef9)"><g clip-path="url(#23c1291fcd)"><path fill="#dfcc89" d="M 84.585938 137.402344 C 72.3125 162.753906 69.910156 191.773438 77.398438 218.585938 C 77.613281 219.355469 78.410156 219.804688 79.183594 219.589844 C 79.949219 219.371094 80.398438 218.578125 80.183594 217.808594 C 72.882812 191.667969 75.226562 163.363281 87.191406 138.660156 C 87.539062 137.941406 87.238281 137.078125 86.519531 136.730469 C 85.800781 136.382812 84.933594 136.683594 84.585938 137.402344 " fill-opacity="1" fill-rule="nonzero"/></g></g></g><g clip-path="url(#24040c80ed)"><g clip-path="url(#1cff2143cf)"><g clip-path="url(#ff5b762fda)"><path fill="#dfcc89" d="M 77.695312 134.078125 C 64.550781 161.148438 61.972656 192.074219 70.011719 220.671875 C 70.230469 221.441406 71.027344 221.886719 71.796875 221.671875 C 72.566406 221.457031 73.011719 220.660156 72.796875 219.886719 C 64.949219 191.96875 67.464844 161.761719 80.296875 135.339844 C 80.644531 134.621094 80.347656 133.761719 79.628906 133.410156 C 78.910156 133.0625 78.046875 133.359375 77.695312 134.078125 " fill-opacity="1" fill-rule="nonzero"/></g></g></g><g clip-path="url(#615e99f776)"><g clip-path="url(#a1e2de5b20)"><g clip-path="url(#f41fff7fe7)"><path fill="#dfcc89" d="M 122.902344 155.863281 C 115.074219 171.863281 113.515625 190.132812 118.292969 207.054688 C 118.507812 207.824219 119.308594 208.273438 120.074219 208.058594 C 120.84375 207.839844 121.289062 207.039062 121.074219 206.273438 C 116.492188 190.03125 117.988281 172.484375 125.5 157.132812 C 125.851562 156.417969 125.554688 155.550781 124.835938 155.199219 C 124.121094 154.847656 123.253906 155.144531 122.902344 155.863281 " fill-opacity="1" fill-rule="nonzero"/></g></g></g><g clip-path="url(#b9887906aa)"><g clip-path="url(#769adb644a)"><g clip-path="url(#1f56dcd429)"><path fill="#dfcc89" d="M 99.949219 144.800781 C 89.351562 166.457031 87.257812 191.117188 93.738281 213.984375 C 93.957031 214.75 94.757812 215.199219 95.527344 214.980469 C 96.292969 214.761719 96.738281 213.960938 96.523438 213.195312 C 90.234375 191.011719 92.261719 167.082031 102.546875 146.070312 C 102.898438 145.355469 102.601562 144.488281 101.882812 144.136719 C 101.164062 143.785156 100.300781 144.082031 99.949219 144.800781 " fill-opacity="1" fill-rule="nonzero"/></g></g></g><g clip-path="url(#b781815a02)"><g clip-path="url(#4f323a89bb)"><g clip-path="url(#9b5002eab6)"><path fill="#dfcc89" d="M 107.851562 148.613281 C 98.277344 168.285156 96.382812 190.78125 102.226562 211.585938 C 102.441406 212.351562 103.238281 212.800781 104.007812 212.585938 C 104.773438 212.371094 105.222656 211.574219 105.007812 210.804688 C 99.355469 190.675781 101.191406 168.902344 110.453125 149.878906 C 110.800781 149.160156 110.5 148.292969 109.785156 147.945312 C 109.066406 147.59375 108.199219 147.894531 107.851562 148.613281 " fill-opacity="1" fill-rule="nonzero"/></g></g></g><g clip-path="url(#485c035b46)"><g clip-path="url(#b03759833c)"><g clip-path="url(#b9cb66e146)"><path fill="#dfcc89" d="M 115.710938 152.394531 C 110.550781 162.9375 107.789062 174.507812 107.648438 186.503906 C 107.546875 194.285156 108.570312 201.910156 110.621094 209.214844 C 110.835938 209.988281 111.636719 210.433594 112.402344 210.21875 C 113.171875 210.003906 113.621094 209.203125 113.40625 208.4375 C 111.425781 201.390625 110.445312 194.046875 110.539062 186.539062 C 110.675781 174.964844 113.332031 163.824219 118.308594 153.667969 C 118.660156 152.953125 118.363281 152.085938 117.648438 151.734375 C 116.929688 151.382812 116.0625 151.679688 115.710938 152.394531 " fill-opacity="1" fill-rule="nonzero"/></g></g></g><g clip-path="url(#fc1b00ef28)"><g clip-path="url(#d232e9593d)"><g clip-path="url(#2d929df153)"><path fill="#dfcc89" d="M 91.867188 140.90625 C 85.003906 155.039062 81.269531 170.648438 81.125 186.53125 C 81.035156 196.679688 82.429688 206.738281 85.15625 216.398438 C 85.375 217.167969 86.171875 217.617188 86.941406 217.398438 C 87.710938 217.183594 88.15625 216.382812 87.941406 215.617188 C 85.289062 206.207031 83.929688 196.421875 84.015625 186.554688 C 84.15625 171.113281 87.789062 155.917969 94.46875 142.167969 C 94.816406 141.449219 94.519531 140.585938 93.796875 140.238281 C 93.078125 139.890625 92.21875 140.1875 91.867188 140.90625 " fill-opacity="1" fill-rule="nonzero"/></g></g></g><g clip-path="url(#644455bdd6)"><g clip-path="url(#a9ac57cb13)"><g clip-path="url(#97c50dbfc7)"><path fill="#dfcc89" d="M 264.632812 209.097656 C 269.84375 190.421875 268.160156 170.234375 259.605469 152.574219 C 259.257812 151.855469 258.394531 151.554688 257.675781 151.902344 C 256.953125 152.253906 256.65625 153.117188 257.003906 153.835938 C 265.242188 170.847656 266.871094 190.320312 261.847656 208.320312 C 261.632812 209.089844 262.082031 209.886719 262.855469 210.101562 C 263.621094 210.316406 264.417969 209.867188 264.632812 209.097656 " fill-opacity="1" fill-rule="nonzero"/></g></g></g><g clip-path="url(#445e8cc27b)"><g clip-path="url(#db95f969c3)"><g clip-path="url(#c5a7aa842c)"><path fill="#dfcc89" d="M 305.230469 220.550781 C 308.324219 209.542969 309.910156 198.085938 309.820312 186.53125 C 309.679688 168.347656 305.417969 150.464844 297.59375 134.261719 C 297.246094 133.542969 296.378906 133.242188 295.660156 133.589844 C 294.941406 133.9375 294.640625 134.800781 294.988281 135.519531 C 302.632812 151.339844 306.792969 168.808594 306.929688 186.550781 C 307.019531 197.828125 305.46875 209.015625 302.445312 219.769531 C 302.234375 220.539062 302.679688 221.335938 303.449219 221.550781 C 304.21875 221.769531 305.015625 221.320312 305.230469 220.550781 " fill-opacity="1" fill-rule="nonzero"/></g></g></g><g clip-path="url(#9d5ccbc8e5)"><g clip-path="url(#d76ba84301)"><g clip-path="url(#5aeb83622a)"><path fill="#dfcc89" d="M 290.191406 216.308594 C 297.160156 191.453125 294.910156 164.601562 283.496094 141.054688 C 283.144531 140.335938 282.28125 140.039062 281.5625 140.382812 C 280.847656 140.734375 280.542969 141.597656 280.890625 142.316406 C 292 165.21875 294.1875 191.347656 287.410156 215.527344 C 287.191406 216.296875 287.640625 217.09375 288.410156 217.308594 C 289.179688 217.523438 289.976562 217.078125 290.191406 216.308594 " fill-opacity="1" fill-rule="nonzero"/></g></g></g><g clip-path="url(#22f78d2d16)"><g clip-path="url(#95b9216751)"><g clip-path="url(#c5df5cf7b9)"><path fill="#dfcc89" d="M 297.917969 218.492188 C 300.828125 208.140625 302.3125 197.371094 302.222656 186.523438 C 302.082031 169.507812 298.089844 152.742188 290.753906 137.558594 C 290.40625 136.839844 289.539062 136.542969 288.820312 136.890625 C 288.101562 137.234375 287.800781 138.097656 288.148438 138.820312 C 295.300781 153.617188 299.191406 169.96875 299.328125 186.546875 C 299.417969 197.117188 297.972656 207.621094 295.136719 217.710938 C 294.917969 218.480469 295.367188 219.277344 296.136719 219.496094 C 296.90625 219.710938 297.703125 219.261719 297.921875 218.496094 " fill-opacity="1" fill-rule="nonzero"/></g></g></g><g clip-path="url(#93aad17ac3)"><g clip-path="url(#dc513f34f2)"><g clip-path="url(#f8a65da22f)"><path fill="#dfcc89" d="M 257.035156 206.957031 C 261.789062 190.109375 260.242188 171.992188 252.445312 156.023438 C 252.09375 155.304688 251.226562 155.007812 250.507812 155.359375 C 249.789062 155.710938 249.492188 156.574219 249.84375 157.292969 C 257.332031 172.617188 258.816406 190.003906 254.25 206.175781 C 254.03125 206.9375 254.480469 207.738281 255.25 207.953125 C 256.019531 208.171875 256.816406 207.726562 257.035156 206.957031 " fill-opacity="1" fill-rule="nonzero"/></g></g></g><g clip-path="url(#b7f988cf8d)"><g clip-path="url(#5837edd70c)"><g clip-path="url(#514f4598be)"><path fill="#dfcc89" d="M 273.121094 211.5 C 278.980469 190.757812 277.089844 168.421875 267.496094 148.765625 C 267.144531 148.046875 266.28125 147.746094 265.5625 148.097656 C 264.847656 148.449219 264.546875 149.3125 264.898438 150.035156 C 274.179688 169.046875 276.007812 190.652344 270.339844 210.710938 C 270.121094 211.480469 270.566406 212.277344 271.335938 212.496094 C 272.105469 212.710938 272.902344 212.265625 273.121094 211.5 " fill-opacity="1" fill-rule="nonzero"/></g></g></g><g clip-path="url(#fc436423aa)"><g clip-path="url(#ccd40c133c)"><g clip-path="url(#ba3ef290c9)"><path fill="#dfcc89" d="M 281.457031 213.84375 C 287.773438 191.097656 285.710938 166.484375 275.347656 144.988281 C 275 144.269531 274.136719 143.964844 273.417969 144.3125 C 272.695312 144.660156 272.394531 145.523438 272.742188 146.242188 C 282.800781 167.09375 284.804688 191.003906 278.671875 213.066406 C 278.457031 213.835938 278.90625 214.636719 279.675781 214.847656 C 280.445312 215.058594 281.242188 214.609375 281.457031 213.84375 " fill-opacity="1" fill-rule="nonzero"/></g></g></g><g clip-path="url(#44d2affa9d)"><path fill="#dfcc89" d="M 187.390625 138.265625 C 160.257812 138.265625 138.265625 160.257812 138.265625 187.390625 C 138.265625 214.519531 160.257812 236.515625 187.390625 236.515625 C 214.519531 236.515625 236.515625 214.519531 236.515625 187.390625 C 236.515625 160.257812 214.519531 138.265625 187.390625 138.265625 " fill-opacity="1" fill-rule="nonzero"/></g><g clip-path="url(#6c151e67f7)"><path fill="#000000" d="M 207.816406 180.675781 C 207.617188 180.675781 207.421875 180.714844 207.234375 180.789062 C 207.050781 180.867188 206.886719 180.976562 206.742188 181.117188 C 206.601562 181.257812 206.492188 181.421875 206.414062 181.605469 C 206.335938 181.792969 206.296875 181.984375 206.296875 182.183594 L 206.296875 187.046875 C 206.296875 187.652344 206.269531 188.257812 206.207031 188.863281 C 206.148438 189.46875 206.058594 190.070312 205.941406 190.664062 C 205.820312 191.261719 205.671875 191.851562 205.496094 192.433594 C 205.316406 193.015625 205.113281 193.585938 204.878906 194.148438 C 204.644531 194.710938 204.382812 195.257812 204.09375 195.792969 C 203.808594 196.332031 203.492188 196.851562 203.152344 197.355469 C 202.8125 197.863281 202.449219 198.347656 202.0625 198.820312 C 201.671875 199.289062 201.261719 199.738281 200.832031 200.167969 C 200.398438 200.597656 199.945312 201.007812 199.472656 201.390625 C 199 201.777344 198.511719 202.140625 198 202.476562 C 197.492188 202.816406 196.96875 203.128906 196.429688 203.414062 C 195.890625 203.699219 195.335938 203.960938 194.773438 204.191406 C 194.207031 204.425781 193.632812 204.628906 193.046875 204.804688 C 192.460938 204.984375 191.867188 205.128906 191.269531 205.25 C 190.667969 205.367188 190.066406 205.457031 189.457031 205.515625 C 188.847656 205.574219 188.238281 205.605469 187.625 205.605469 C 187.015625 205.605469 186.402344 205.574219 185.796875 205.515625 C 185.1875 205.457031 184.582031 205.367188 183.980469 205.25 C 183.382812 205.128906 182.789062 204.984375 182.203125 204.804688 C 181.617188 204.628906 181.042969 204.425781 180.480469 204.191406 C 179.914062 203.960938 179.363281 203.699219 178.820312 203.414062 C 178.28125 203.128906 177.757812 202.816406 177.25 202.476562 C 176.742188 202.140625 176.25 201.777344 175.777344 201.390625 C 175.304688 201.007812 174.851562 200.597656 174.421875 200.167969 C 173.988281 199.738281 173.578125 199.289062 173.191406 198.820312 C 172.800781 198.347656 172.4375 197.863281 172.097656 197.355469 C 171.757812 196.851562 171.445312 196.332031 171.15625 195.792969 C 170.867188 195.257812 170.605469 194.710938 170.375 194.148438 C 170.140625 193.585938 169.933594 193.015625 169.757812 192.433594 C 169.578125 191.851562 169.429688 191.261719 169.3125 190.664062 C 169.191406 190.070312 169.101562 189.46875 169.042969 188.863281 C 168.984375 188.257812 168.953125 187.652344 168.953125 187.046875 L 168.953125 182.183594 C 168.953125 181.984375 168.914062 181.792969 168.839844 181.605469 C 168.761719 181.421875 168.652344 181.257812 168.507812 181.117188 C 168.367188 180.976562 168.203125 180.867188 168.015625 180.789062 C 167.828125 180.714844 167.636719 180.675781 167.433594 180.675781 C 167.230469 180.675781 167.039062 180.714844 166.851562 180.789062 C 166.664062 180.867188 166.5 180.976562 166.359375 181.117188 C 166.214844 181.257812 166.105469 181.421875 166.027344 181.605469 C 165.953125 181.792969 165.914062 181.984375 165.914062 182.183594 L 165.914062 187.046875 C 165.914062 187.71875 165.945312 188.394531 166.011719 189.066406 C 166.074219 189.738281 166.171875 190.402344 166.300781 191.066406 C 166.425781 191.730469 166.585938 192.382812 166.773438 193.03125 C 166.964844 193.679688 167.183594 194.320312 167.433594 194.945312 C 167.679688 195.574219 167.960938 196.1875 168.265625 196.789062 C 168.574219 197.390625 168.910156 197.976562 169.269531 198.546875 C 169.632812 199.117188 170.023438 199.671875 170.4375 200.207031 C 170.851562 200.738281 171.289062 201.253906 171.753906 201.746094 C 172.21875 202.242188 172.703125 202.710938 173.210938 203.160156 C 173.71875 203.609375 174.246094 204.03125 174.792969 204.429688 C 175.339844 204.832031 175.90625 205.203125 176.488281 205.550781 C 177.070312 205.894531 177.667969 206.214844 178.28125 206.503906 C 178.894531 206.796875 179.519531 207.058594 180.15625 207.292969 C 180.792969 207.523438 181.441406 207.726562 182.097656 207.898438 C 182.753906 208.070312 183.414062 208.210938 184.085938 208.324219 C 184.753906 208.433594 185.429688 208.515625 186.105469 208.5625 L 186.105469 216.257812 L 176.664062 216.257812 C 176.460938 216.257812 176.265625 216.296875 176.082031 216.375 C 175.894531 216.449219 175.730469 216.558594 175.585938 216.699219 C 175.445312 216.84375 175.335938 217.007812 175.257812 217.191406 C 175.179688 217.375 175.140625 217.570312 175.140625 217.769531 C 175.140625 217.96875 175.179688 218.164062 175.257812 218.347656 C 175.335938 218.53125 175.445312 218.695312 175.585938 218.835938 C 175.730469 218.980469 175.894531 219.089844 176.082031 219.164062 C 176.265625 219.242188 176.460938 219.28125 176.664062 219.28125 L 198.589844 219.28125 C 198.792969 219.28125 198.984375 219.242188 199.171875 219.164062 C 199.359375 219.089844 199.523438 218.980469 199.664062 218.835938 C 199.808594 218.695312 199.917969 218.53125 199.996094 218.347656 C 200.070312 218.164062 200.109375 217.96875 200.109375 217.769531 C 200.109375 217.570312 200.070312 217.375 199.996094 217.191406 C 199.917969 217.007812 199.808594 216.84375 199.664062 216.699219 C 199.523438 216.558594 199.359375 216.449219 199.171875 216.375 C 198.984375 216.296875 198.792969 216.257812 198.589844 216.257812 L 189.148438 216.257812 L 189.148438 208.5625 C 189.824219 208.511719 190.496094 208.433594 191.167969 208.324219 C 191.835938 208.210938 192.5 208.070312 193.15625 207.898438 C 193.8125 207.726562 194.460938 207.523438 195.097656 207.289062 C 195.734375 207.058594 196.359375 206.796875 196.972656 206.503906 C 197.585938 206.214844 198.183594 205.894531 198.765625 205.550781 C 199.347656 205.203125 199.914062 204.828125 200.460938 204.429688 C 201.007812 204.03125 201.535156 203.609375 202.042969 203.160156 C 202.550781 202.710938 203.035156 202.238281 203.496094 201.746094 C 203.960938 201.253906 204.398438 200.738281 204.816406 200.207031 C 205.230469 199.671875 205.617188 199.117188 205.980469 198.546875 C 206.34375 197.976562 206.675781 197.390625 206.984375 196.789062 C 207.292969 196.1875 207.570312 195.574219 207.820312 194.945312 C 208.070312 194.316406 208.289062 193.679688 208.476562 193.03125 C 208.667969 192.382812 208.824219 191.730469 208.953125 191.066406 C 209.078125 190.402344 209.175781 189.738281 209.238281 189.066406 C 209.304688 188.394531 209.335938 187.71875 209.339844 187.046875 L 209.339844 182.183594 C 209.339844 181.984375 209.300781 181.792969 209.222656 181.605469 C 209.144531 181.421875 209.035156 181.257812 208.894531 181.117188 C 208.75 180.976562 208.585938 180.867188 208.398438 180.789062 C 208.214844 180.714844 208.019531 180.675781 207.816406 180.675781 Z M 207.816406 180.675781 " fill-opacity="1" fill-rule="nonzero"/></g><g clip-path="url(#28ae0b142c)"><path fill="#000000" d="M 177.652344 185.847656 L 180.757812 185.847656 C 180.957031 185.847656 181.152344 185.886719 181.339844 185.964844 C 181.523438 186.039062 181.691406 186.148438 181.832031 186.289062 C 181.976562 186.433594 182.085938 186.59375 182.160156 186.78125 C 182.238281 186.964844 182.277344 187.160156 182.277344 187.359375 C 182.277344 187.558594 182.238281 187.75 182.160156 187.9375 C 182.085938 188.121094 181.976562 188.285156 181.832031 188.425781 C 181.691406 188.570312 181.523438 188.679688 181.339844 188.753906 C 181.152344 188.832031 180.957031 188.871094 180.757812 188.871094 L 173.460938 188.871094 C 173.476562 189.78125 173.582031 190.683594 173.777344 191.578125 C 173.972656 192.46875 174.25 193.335938 174.617188 194.171875 C 174.980469 195.011719 175.421875 195.804688 175.941406 196.558594 C 176.460938 197.3125 177.046875 198.007812 177.703125 198.648438 C 178.359375 199.285156 179.070312 199.855469 179.839844 200.359375 C 180.605469 200.859375 181.414062 201.285156 182.265625 201.628906 C 183.117188 201.972656 183.992188 202.234375 184.894531 202.410156 C 185.796875 202.585938 186.707031 202.675781 187.625 202.675781 C 188.542969 202.675781 189.453125 202.585938 190.355469 202.410156 C 191.257812 202.234375 192.132812 201.972656 192.984375 201.628906 C 193.832031 201.285156 194.640625 200.859375 195.410156 200.359375 C 196.175781 199.855469 196.890625 199.285156 197.542969 198.648438 C 198.199219 198.007812 198.789062 197.3125 199.308594 196.558594 C 199.828125 195.804688 200.269531 195.011719 200.632812 194.171875 C 200.996094 193.335938 201.277344 192.46875 201.472656 191.578125 C 201.664062 190.683594 201.769531 189.78125 201.789062 188.871094 L 195.261719 188.871094 C 195.058594 188.871094 194.867188 188.832031 194.679688 188.753906 C 194.492188 188.679688 194.328125 188.570312 194.1875 188.425781 C 194.042969 188.285156 193.933594 188.121094 193.855469 187.9375 C 193.78125 187.75 193.742188 187.558594 193.742188 187.359375 C 193.742188 187.160156 193.78125 186.964844 193.855469 186.78125 C 193.933594 186.59375 194.042969 186.433594 194.1875 186.289062 C 194.328125 186.148438 194.492188 186.039062 194.679688 185.964844 C 194.867188 185.886719 195.058594 185.847656 195.261719 185.847656 L 201.804688 185.847656 L 201.804688 181.28125 L 195.261719 181.28125 C 195.058594 181.28125 194.867188 181.242188 194.679688 181.167969 C 194.492188 181.089844 194.328125 180.980469 194.1875 180.839844 C 194.042969 180.695312 193.933594 180.535156 193.855469 180.347656 C 193.78125 180.164062 193.742188 179.972656 193.742188 179.769531 C 193.742188 179.570312 193.78125 179.378906 193.855469 179.191406 C 193.933594 179.007812 194.042969 178.84375 194.1875 178.703125 C 194.328125 178.5625 194.492188 178.453125 194.679688 178.375 C 194.867188 178.296875 195.058594 178.261719 195.261719 178.261719 L 201.804688 178.261719 L 201.804688 173.695312 L 195.261719 173.695312 C 195.058594 173.695312 194.867188 173.65625 194.679688 173.578125 C 194.492188 173.503906 194.328125 173.394531 194.1875 173.25 C 194.042969 173.109375 193.933594 172.945312 193.855469 172.761719 C 193.78125 172.578125 193.742188 172.382812 193.742188 172.183594 C 193.742188 171.984375 193.78125 171.789062 193.855469 171.605469 C 193.933594 171.421875 194.042969 171.257812 194.1875 171.113281 C 194.328125 170.972656 194.492188 170.863281 194.679688 170.789062 C 194.867188 170.710938 195.058594 170.671875 195.261719 170.671875 L 201.804688 170.671875 L 201.804688 169.527344 C 201.800781 168.605469 201.703125 167.695312 201.515625 166.792969 C 201.328125 165.890625 201.054688 165.015625 200.695312 164.167969 C 200.335938 163.316406 199.898438 162.511719 199.378906 161.75 C 198.863281 160.984375 198.273438 160.28125 197.617188 159.628906 C 196.957031 158.980469 196.242188 158.402344 195.472656 157.894531 C 194.699219 157.382812 193.886719 156.953125 193.027344 156.601562 C 192.171875 156.253906 191.289062 155.988281 190.378906 155.808594 C 189.46875 155.628906 188.554688 155.539062 187.625 155.539062 C 186.699219 155.539062 185.78125 155.628906 184.871094 155.808594 C 183.964844 155.988281 183.082031 156.253906 182.222656 156.601562 C 181.367188 156.953125 180.550781 157.382812 179.78125 157.894531 C 179.007812 158.402344 178.292969 158.980469 177.636719 159.628906 C 176.976562 160.28125 176.390625 160.984375 175.871094 161.75 C 175.351562 162.511719 174.914062 163.316406 174.554688 164.167969 C 174.195312 165.015625 173.921875 165.890625 173.734375 166.792969 C 173.550781 167.695312 173.453125 168.605469 173.445312 169.527344 L 173.445312 170.671875 L 180.757812 170.671875 C 180.957031 170.671875 181.152344 170.710938 181.339844 170.789062 C 181.523438 170.863281 181.691406 170.972656 181.832031 171.113281 C 181.976562 171.257812 182.085938 171.421875 182.160156 171.605469 C 182.238281 171.789062 182.277344 171.984375 182.277344 172.183594 C 182.277344 172.382812 182.238281 172.578125 182.160156 172.761719 C 182.085938 172.945312 181.976562 173.109375 181.832031 173.25 C 181.691406 173.394531 181.523438 173.503906 181.339844 173.578125 C 181.152344 173.65625 180.957031 173.695312 180.757812 173.695312 L 173.445312 173.695312 L 173.445312 178.261719 L 180.757812 178.261719 C 180.957031 178.261719 181.152344 178.296875 181.339844 178.375 C 181.523438 178.453125 181.691406 178.5625 181.832031 178.703125 C 181.972656 178.84375 182.085938 179.007812 182.160156 179.191406 C 182.238281 179.378906 182.277344 179.570312 182.277344 179.769531 C 182.277344 179.972656 182.238281 180.164062 182.160156 180.347656 C 182.085938 180.535156 181.972656 180.695312 181.832031 180.839844 C 181.691406 180.980469 181.523438 181.089844 181.339844 181.167969 C 181.152344 181.242188 180.957031 181.28125 180.757812 181.28125 L 173.445312 181.28125 L 173.445312 185.847656 Z M 186.105469 172.183594 C 186.105469 171.984375 186.144531 171.789062 186.222656 171.605469 C 186.300781 171.421875 186.410156 171.257812 186.550781 171.113281 C 186.695312 170.972656 186.859375 170.863281 187.042969 170.789062 C 187.230469 170.710938 187.425781 170.671875 187.625 170.671875 C 187.828125 170.671875 188.023438 170.710938 188.207031 170.789062 C 188.394531 170.863281 188.558594 170.972656 188.703125 171.113281 C 188.84375 171.257812 188.953125 171.421875 189.03125 171.605469 C 189.109375 171.789062 189.148438 171.984375 189.148438 172.183594 L 189.148438 173.902344 C 189.148438 174.101562 189.109375 174.292969 189.03125 174.480469 C 188.953125 174.664062 188.84375 174.828125 188.703125 174.96875 C 188.558594 175.109375 188.394531 175.21875 188.207031 175.296875 C 188.023438 175.375 187.828125 175.410156 187.625 175.410156 C 187.425781 175.410156 187.230469 175.375 187.042969 175.296875 C 186.859375 175.21875 186.695312 175.109375 186.550781 174.96875 C 186.410156 174.828125 186.300781 174.664062 186.222656 174.480469 C 186.144531 174.292969 186.105469 174.101562 186.105469 173.902344 Z M 186.105469 178.691406 C 186.105469 178.492188 186.144531 178.300781 186.222656 178.113281 C 186.300781 177.929688 186.410156 177.765625 186.550781 177.625 C 186.695312 177.480469 186.859375 177.375 187.042969 177.296875 C 187.230469 177.21875 187.425781 177.179688 187.625 177.179688 C 187.828125 177.179688 188.023438 177.21875 188.207031 177.296875 C 188.394531 177.375 188.558594 177.480469 188.703125 177.625 C 188.84375 177.765625 188.953125 177.929688 189.03125 178.113281 C 189.109375 178.300781 189.148438 178.492188 189.148438 178.691406 L 189.148438 180.410156 C 189.148438 180.609375 189.109375 180.804688 189.03125 180.988281 C 188.953125 181.171875 188.84375 181.335938 188.703125 181.476562 C 188.558594 181.621094 188.394531 181.730469 188.207031 181.804688 C 188.023438 181.882812 187.828125 181.921875 187.625 181.921875 C 187.425781 181.921875 187.230469 181.882812 187.042969 181.804688 C 186.859375 181.730469 186.695312 181.621094 186.550781 181.476562 C 186.410156 181.335938 186.300781 181.171875 186.222656 180.988281 C 186.144531 180.804688 186.105469 180.609375 186.105469 180.410156 Z M 186.105469 185.199219 C 186.105469 185 186.144531 184.808594 186.222656 184.621094 C 186.300781 184.4375 186.410156 184.273438 186.550781 184.132812 C 186.695312 183.992188 186.859375 183.882812 187.042969 183.804688 C 187.230469 183.726562 187.425781 183.691406 187.625 183.691406 C 187.828125 183.691406 188.023438 183.726562 188.207031 183.804688 C 188.394531 183.882812 188.558594 183.992188 188.703125 184.132812 C 188.84375 184.273438 188.953125 184.4375 189.03125 184.621094 C 189.109375 184.808594 189.148438 185 189.148438 185.199219 L 189.148438 186.917969 C 189.148438 187.117188 189.109375 187.3125 189.03125 187.496094 C 188.953125 187.679688 188.84375 187.84375 188.703125 187.988281 C 188.558594 188.128906 188.394531 188.238281 188.207031 188.3125 C 188.023438 188.390625 187.828125 188.429688 187.625 188.429688 C 187.425781 188.429688 187.230469 188.390625 187.042969 188.3125 C 186.859375 188.238281 186.695312 188.128906 186.550781 187.988281 C 186.410156 187.84375 186.300781 187.679688 186.222656 187.496094 C 186.144531 187.3125 186.105469 187.117188 186.105469 186.917969 Z M 186.105469 185.199219 " fill-opacity="1" fill-rule="nonzero"/></g><g clip-path="url(#7ae3134023)"><path fill="#dfcc89" d="M 30.082031 182.253906 C 27.183594 182.253906 24.832031 184.605469 24.832031 187.503906 C 24.832031 190.402344 27.183594 192.753906 30.082031 192.753906 C 32.980469 192.753906 35.332031 190.402344 35.332031 187.503906 C 35.332031 184.605469 32.980469 182.253906 30.082031 182.253906 " fill-opacity="1" fill-rule="nonzero"/></g><g fill="#dfcc89" fill-opacity="1"><g transform="translate(130.794819, 50.14781)"><g><path d="M 24.875 -7.84375 L 20.203125 -6.375 L 15.9375 -19.859375 L 14.546875 -6.875 L 11.109375 -5.796875 L 2.53125 -15.625 L 6.78125 -2.140625 L 2.078125 -0.65625 L -4.46875 -21.421875 L 1.3125 -23.25 L 10.828125 -12.671875 L 12.578125 -26.796875 L 18.328125 -28.609375 Z M 24.875 -7.84375 "/></g></g></g><g fill="#dfcc89" fill-opacity="1"><g transform="translate(160.457654, 41.316187)"><g><path d="M 19.3125 -23.9375 L 20.65625 -11.40625 C 20.957031 -8.53125 20.3125 -6.160156 18.71875 -4.296875 C 17.132812 -2.429688 14.832031 -1.335938 11.8125 -1.015625 C 8.75 -0.679688 6.222656 -1.253906 4.234375 -2.734375 C 2.253906 -4.222656 1.113281 -6.40625 0.8125 -9.28125 L -0.53125 -21.8125 L 4.96875 -22.40625 L 6.3125 -9.875 C 6.46875 -8.425781 7.007812 -7.316406 7.9375 -6.546875 C 8.863281 -5.773438 10 -5.460938 11.34375 -5.609375 C 12.65625 -5.742188 13.660156 -6.28125 14.359375 -7.21875 C 15.066406 -8.15625 15.34375 -9.359375 15.1875 -10.828125 L 13.84375 -23.359375 Z M 19.3125 -23.9375 "/></g></g></g><g fill="#dfcc89" fill-opacity="1"><g transform="translate(186.865486, 38.90421)"><g><path d="M 11.96875 -21.265625 C 15.21875 -21.046875 18.015625 -20.046875 20.359375 -18.265625 L 18 -14.109375 C 16.914062 -14.835938 15.734375 -15.457031 14.453125 -15.96875 C 13.171875 -16.488281 12.085938 -16.78125 11.203125 -16.84375 C 9.609375 -16.945312 8.773438 -16.46875 8.703125 -15.40625 C 8.660156 -14.726562 9.019531 -14.15625 9.78125 -13.6875 C 10.539062 -13.21875 11.472656 -12.789062 12.578125 -12.40625 C 13.679688 -12.03125 14.785156 -11.59375 15.890625 -11.09375 C 16.992188 -10.601562 17.898438 -9.859375 18.609375 -8.859375 C 19.328125 -7.859375 19.640625 -6.632812 19.546875 -5.1875 C 19.410156 -3.101562 18.488281 -1.53125 16.78125 -0.46875 C 15.070312 0.59375 12.957031 1.039062 10.4375 0.875 C 8.632812 0.757812 6.875 0.332031 5.15625 -0.40625 C 3.445312 -1.144531 1.976562 -2.097656 0.75 -3.265625 L 3.171875 -7.359375 C 4.191406 -6.335938 5.425781 -5.46875 6.875 -4.75 C 8.332031 -4.039062 9.640625 -3.648438 10.796875 -3.578125 C 11.679688 -3.515625 12.378906 -3.628906 12.890625 -3.921875 C 13.410156 -4.210938 13.691406 -4.671875 13.734375 -5.296875 C 13.773438 -5.890625 13.523438 -6.40625 12.984375 -6.84375 C 12.441406 -7.289062 11.753906 -7.640625 10.921875 -7.890625 C 10.085938 -8.148438 9.1875 -8.476562 8.21875 -8.875 C 7.25 -9.269531 6.351562 -9.6875 5.53125 -10.125 C 4.71875 -10.570312 4.050781 -11.242188 3.53125 -12.140625 C 3.019531 -13.035156 2.800781 -14.085938 2.875 -15.296875 C 3.007812 -17.265625 3.90625 -18.789062 5.5625 -19.875 C 7.226562 -20.96875 9.363281 -21.429688 11.96875 -21.265625 Z M 11.96875 -21.265625 "/></g></g></g><g fill="#dfcc89" fill-opacity="1"><g transform="translate(210.228161, 40.994518)"><g><path d="M 7.5625 1.484375 L 2.125 0.421875 L 6.328125 -20.921875 L 11.765625 -19.859375 Z M 7.5625 1.484375 "/></g></g></g><g fill="#dfcc89" fill-opacity="1"><g transform="translate(223.322255, 43.409052)"><g><path d="M 18.765625 -16.78125 C 20.296875 -16.257812 21.695312 -15.4375 22.96875 -14.3125 C 24.238281 -13.1875 25.210938 -11.921875 25.890625 -10.515625 L 21.640625 -7.953125 C 21.253906 -8.992188 20.675781 -9.910156 19.90625 -10.703125 C 19.132812 -11.503906 18.289062 -12.0625 17.375 -12.375 C 15.738281 -12.925781 14.175781 -12.816406 12.6875 -12.046875 C 11.195312 -11.273438 10.164062 -10.046875 9.59375 -8.359375 C 9.007812 -6.628906 9.070312 -4.992188 9.78125 -3.453125 C 10.488281 -1.921875 11.660156 -0.878906 13.296875 -0.328125 C 14.148438 -0.0351562 15.113281 0.046875 16.1875 -0.078125 C 17.269531 -0.203125 18.300781 -0.507812 19.28125 -1 L 21.25 3.28125 C 19.738281 4.039062 18.101562 4.503906 16.34375 4.671875 C 14.59375 4.835938 12.96875 4.664062 11.46875 4.15625 C 8.351562 3.101562 6.109375 1.21875 4.734375 -1.5 C 3.367188 -4.226562 3.195312 -7.101562 4.21875 -10.125 C 5.226562 -13.082031 7.117188 -15.195312 9.890625 -16.46875 C 12.660156 -17.75 15.617188 -17.851562 18.765625 -16.78125 Z M 18.765625 -16.78125 "/></g></g></g><g fill="#dfcc89" fill-opacity="1"><g transform="translate(98.253424, 330.311623)"><g><path d="M 12.765625 7.46875 L 12.203125 0.71875 C 11.773438 0.5 11.441406 0.316406 11.203125 0.171875 L 7.359375 -2.078125 L 4.578125 2.671875 L 2.328125 1.359375 L 11.453125 -14.234375 L 17.546875 -10.671875 C 19.566406 -9.484375 20.875 -8.066406 21.46875 -6.421875 C 22.070312 -4.785156 21.875 -3.117188 20.875 -1.421875 C 20.164062 -0.210938 19.269531 0.632812 18.1875 1.125 C 17.101562 1.625 15.890625 1.742188 14.546875 1.484375 L 15.203125 8.890625 Z M 12.21875 -1.765625 C 13.632812 -0.929688 14.894531 -0.597656 16 -0.765625 C 17.101562 -0.941406 17.984375 -1.59375 18.640625 -2.71875 C 19.304688 -3.851562 19.441406 -4.9375 19.046875 -5.96875 C 18.648438 -7.007812 17.742188 -7.945312 16.328125 -8.78125 L 12.5625 -10.984375 L 8.453125 -3.96875 Z M 12.21875 -1.765625 "/></g></g></g><g fill="#dfcc89" fill-opacity="1"><g transform="translate(119.301547, 342.254313)"><g><path d="M 10.046875 4.109375 C 8.347656 3.453125 6.960938 2.488281 5.890625 1.21875 C 4.828125 -0.0507812 4.160156 -1.492188 3.890625 -3.109375 C 3.617188 -4.722656 3.796875 -6.34375 4.421875 -7.96875 C 5.054688 -9.59375 6.019531 -10.910156 7.3125 -11.921875 C 8.601562 -12.929688 10.070312 -13.546875 11.71875 -13.765625 C 13.363281 -13.992188 15.035156 -13.78125 16.734375 -13.125 C 18.421875 -12.46875 19.800781 -11.5 20.875 -10.21875 C 21.957031 -8.9375 22.625 -7.492188 22.875 -5.890625 C 23.132812 -4.285156 22.945312 -2.664062 22.3125 -1.03125 C 21.675781 0.601562 20.722656 1.925781 19.453125 2.9375 C 18.179688 3.945312 16.71875 4.554688 15.0625 4.765625 C 13.40625 4.984375 11.734375 4.765625 10.046875 4.109375 Z M 10.875 1.96875 C 12.113281 2.457031 13.332031 2.613281 14.53125 2.4375 C 15.738281 2.257812 16.820312 1.785156 17.78125 1.015625 C 18.738281 0.253906 19.453125 -0.734375 19.921875 -1.953125 C 20.398438 -3.171875 20.539062 -4.382812 20.34375 -5.59375 C 20.15625 -6.8125 19.675781 -7.890625 18.90625 -8.828125 C 18.144531 -9.773438 17.144531 -10.492188 15.90625 -10.984375 C 14.675781 -11.460938 13.445312 -11.613281 12.21875 -11.4375 C 11 -11.257812 9.910156 -10.785156 8.953125 -10.015625 C 8.003906 -9.253906 7.289062 -8.265625 6.8125 -7.046875 C 6.34375 -5.828125 6.203125 -4.609375 6.390625 -3.390625 C 6.578125 -2.179688 7.0625 -1.101562 7.84375 -0.15625 C 8.632812 0.78125 9.644531 1.488281 10.875 1.96875 Z M 10.875 1.96875 "/></g></g></g><g fill="#dfcc89" fill-opacity="1"><g transform="translate(144.718423, 351.478969)"><g><path d="M 10.734375 -4.03125 L 9.390625 2.078125 L 6.90625 1.53125 L 8.265625 -4.609375 L 3.796875 -17.671875 L 6.5 -17.0625 L 10.078125 -6.515625 L 17.8125 -14.5625 L 20.3125 -14.015625 Z M 10.734375 -4.03125 "/></g></g></g><g fill="#dfcc89" fill-opacity="1"><g transform="translate(166.256432, 355.939342)"><g><path d="M 14.515625 -3.4375 L 4.953125 -4.15625 L 2.640625 0.203125 L -0.03125 0 L 9.484375 -17.40625 L 12.03125 -17.21875 L 18.875 1.40625 L 16.15625 1.203125 Z M 13.765625 -5.5625 L 10.546875 -14.6875 L 6 -6.15625 Z M 13.765625 -5.5625 "/></g></g></g><g fill="#dfcc89" fill-opacity="1"><g transform="translate(190.359379, 357.255768)"><g><path d="M 1.546875 -18.203125 L 4.125 -18.375 L 5.140625 -2.59375 L 14.90625 -3.21875 L 15.046875 -0.96875 L 2.703125 -0.171875 Z M 1.546875 -18.203125 "/></g></g></g><g fill="#dfcc89" fill-opacity="1"><g transform="translate(210.773187, 355.616728)"><g><path d="M 3.1875 -16.734375 L -2.890625 -15.5625 L -3.3125 -17.75 L 11.359375 -20.578125 L 11.78125 -18.390625 L 5.703125 -17.21875 L 8.703125 -1.671875 L 6.1875 -1.1875 Z M 3.1875 -16.734375 "/></g></g></g><g fill="#dfcc89" fill-opacity="1"><g transform="translate(230.413701, 351.389034)"><g><path d="M -2.625 -18.078125 L -0.140625 -18.828125 L 5.078125 -1.53125 L 2.59375 -0.78125 Z M -2.625 -18.078125 "/></g></g></g><g fill="#dfcc89" fill-opacity="1"><g transform="translate(242.872579, 347.608045)"><g><path d="M 13.6875 -8.265625 L 14.5625 -6.203125 L 2.484375 -1.0625 L -4.59375 -17.6875 L 7.15625 -22.6875 L 8.03125 -20.625 L -1.328125 -16.640625 L 0.859375 -11.53125 L 9.203125 -15.078125 L 10.0625 -13.0625 L 1.71875 -9.515625 L 4 -4.140625 Z M 13.6875 -8.265625 "/></g></g></g><g fill="#dfcc89" fill-opacity="1"><g transform="translate(263.43349, 338.42729)"><g><path d="M 6.953125 -3.90625 C 5.785156 -3.21875 4.550781 -2.726562 3.25 -2.4375 C 1.945312 -2.144531 0.8125 -2.101562 -0.15625 -2.3125 L -0.359375 -4.53125 C 0.535156 -4.351562 1.546875 -4.375 2.671875 -4.59375 C 3.796875 -4.8125 4.847656 -5.207031 5.828125 -5.78125 C 7.117188 -6.550781 7.945312 -7.34375 8.3125 -8.15625 C 8.6875 -8.976562 8.65625 -9.753906 8.21875 -10.484375 C 7.90625 -11.003906 7.476562 -11.328125 6.9375 -11.453125 C 6.394531 -11.585938 5.8125 -11.585938 5.1875 -11.453125 C 4.570312 -11.328125 3.738281 -11.101562 2.6875 -10.78125 C 1.351562 -10.351562 0.242188 -10.066406 -0.640625 -9.921875 C -1.523438 -9.773438 -2.398438 -9.84375 -3.265625 -10.125 C -4.128906 -10.40625 -4.851562 -11.035156 -5.4375 -12.015625 C -5.9375 -12.847656 -6.164062 -13.722656 -6.125 -14.640625 C -6.082031 -15.566406 -5.734375 -16.5 -5.078125 -17.4375 C -4.429688 -18.375 -3.453125 -19.234375 -2.140625 -20.015625 C -1.234375 -20.566406 -0.265625 -20.984375 0.765625 -21.265625 C 1.796875 -21.554688 2.757812 -21.664062 3.65625 -21.59375 L 4 -19.40625 C 3.09375 -19.414062 2.207031 -19.3125 1.34375 -19.09375 C 0.488281 -18.875 -0.289062 -18.550781 -1 -18.125 C -2.257812 -17.375 -3.066406 -16.582031 -3.421875 -15.75 C -3.773438 -14.914062 -3.738281 -14.132812 -3.3125 -13.40625 C -2.988281 -12.875 -2.550781 -12.546875 -2 -12.421875 C -1.457031 -12.304688 -0.867188 -12.3125 -0.234375 -12.4375 C 0.398438 -12.570312 1.234375 -12.800781 2.265625 -13.125 C 3.597656 -13.550781 4.703125 -13.832031 5.578125 -13.96875 C 6.460938 -14.113281 7.328125 -14.050781 8.171875 -13.78125 C 9.023438 -13.507812 9.742188 -12.882812 10.328125 -11.90625 C 10.816406 -11.09375 11.039062 -10.21875 11 -9.28125 C 10.957031 -8.34375 10.597656 -7.410156 9.921875 -6.484375 C 9.253906 -5.554688 8.265625 -4.695312 6.953125 -3.90625 Z M 6.953125 -3.90625 "/></g></g></g><g clip-path="url(#4083fe7793)"><path fill="#dfcc89" d="M 346.242188 182.253906 C 343.34375 182.253906 340.992188 184.605469 340.992188 187.503906 C 340.992188 190.402344 343.34375 192.753906 346.242188 192.753906 C 349.140625 192.753906 351.492188 190.402344 351.492188 187.503906 C 351.492188 184.605469 349.140625 182.253906 346.242188 182.253906 " fill-opacity="1" fill-rule="nonzero"/></g></svg>